<?xml version="1.0" encoding="UTF-8"?>
<svg id="Capa_1" data-name="Capa 1" xmlns="http://www.w3.org/2000/svg" viewBox="0 0 92.03 91.59">
  <path d="M49.03,48.36c-.94.94-2.36,2.18-3.18,2.27s-2.04-1.23-2.83-2.01c-12.74-12.7-16.07-8.97-12.77-19.19,3.49-10.79,7.45-21.04,16.1-29.43,8,9.01,12.1,19.12,15.73,29.78,3.21,9.43-.78,6.27-13.05,18.58Z"/>
  <g>
    <path d="M35.39,55.3c9.19,11.68,8.91,21.41,10.33,36.29-13.25-1.66-25.94-6.53-33.96-16.56-4.99-6.24-9.07-13.16-10.15-20.94l-1.61-11.6c8.04-3.06,29.08,4.78,35.39,12.8Z"/>
    <path d="M56.41,89.48c-.98-9.15-2.01-17.38-4.63-26.64,6.5-10.23,16.89-19.49,29.48-20.78l10.75-1.11c.59,22.19-13.07,42.28-35.6,48.53Z"/>
  </g>
</svg>